Coordinates
version=1
nRows=43
nColumns=12
inDegrees=yes

Units are S.I. units (second, meters, Newtons, ...)
Angles are in degrees

endheader
time	SC_y	SC_z	SC_x	AC_y	AC_z	AC_x	GH_y	GH_z	GH_yy	EL_x	PS_y
       0.0              -55.99          25.55           12.4          61.42          3.886         -9.578          116.4          81.91         -16.25          23.17          105.8
  0.001784              -55.98          25.55           12.4          61.42          3.885         -9.578          116.4           81.9         -16.25          23.17          105.8
  0.003568              -55.98          25.55           12.4          61.42          3.884         -9.578          116.3           81.9         -16.24          23.17          105.7
  0.005352              -55.98          25.55          12.41          61.42          3.883         -9.578          116.3           81.9         -16.23          23.17          105.7
  0.007136              -55.98          25.55          12.41          61.42          3.881         -9.578          116.2          81.89         -16.22          23.17          105.7
   0.00892              -55.97          25.55          12.41          61.42           3.88         -9.578          116.2          81.89         -16.22          23.16          105.7
    0.0107              -55.97          25.55          12.42          61.42          3.879         -9.579          116.2          81.88         -16.21          23.16          105.7
   0.01249              -55.97          25.55          12.42          61.42          3.877         -9.579          116.1          81.88          -16.2          23.16          105.7
   0.01427              -55.97          25.55          12.42          61.43          3.876         -9.579          116.1          81.88         -16.19          23.16          105.6
   0.01606              -55.96          25.55          12.43          61.43          3.874         -9.579          116.0          81.87         -16.17          23.16          105.6
   0.01784              -55.96          25.55          12.43          61.43          3.873         -9.579          115.9          81.86         -16.16          23.16          105.6
   0.01962              -55.95          25.55          12.44          61.43          3.871         -9.579          115.9          81.86         -16.15          23.16          105.6
   0.02141              -55.95          25.55          12.44          61.43          3.869         -9.579          115.8          81.85         -16.13          23.16          105.5
   0.02319              -55.94          25.56          12.45          61.43          3.867         -9.579          115.7          81.85         -16.12          23.16          105.5
   0.02498              -55.94          25.56          12.45          61.43          3.864          -9.58          115.7          81.84          -16.1          23.15          105.5
   0.02676              -55.93          25.56          12.46          61.43          3.862          -9.58          115.6          81.83         -16.08          23.15          105.4
   0.02854              -55.93          25.56          12.47          61.43          3.859          -9.58          115.5          81.82         -16.06          23.15          105.4
   0.03033              -55.92          25.56          12.48          61.44          3.856          -9.58          115.4          81.81         -16.04          23.15          105.3
   0.03211              -55.91          25.56          12.48          61.44          3.852          -9.58          115.3           81.8         -16.02          23.15          105.3
    0.0339               -55.9          25.56          12.49          61.44          3.849         -9.581          115.1          81.79         -15.99          23.14          105.2
   0.03568               -55.9          25.56           12.5          61.44          3.845         -9.581          115.0          81.78         -15.97          23.14          105.2
   0.03746              -55.89          25.56          12.51          61.44          3.841         -9.581          114.9          81.76         -15.94          23.14          105.1
   0.03925              -55.88          25.56          12.53          61.45          3.836         -9.582          114.7          81.75          -15.9          23.13          105.0
   0.04103              -55.86          25.57          12.54          61.45           3.83         -9.582          114.5          81.73         -15.86          23.13          105.0
   0.04282              -55.85          25.57          12.55          61.45          3.824         -9.582          114.3          81.71         -15.82          23.13          104.9
    0.0446              -55.84          25.57          12.57          61.46          3.818         -9.583          114.1          81.69         -15.78          23.12          104.8
   0.04638              -55.82          25.57          12.59          61.46           3.81         -9.583          113.8          81.67         -15.72          23.12          104.7
   0.04817               -55.8          25.57          12.61          61.47          3.802         -9.584          113.6          81.64         -15.66          23.11          104.5
   0.04995              -55.78          25.58          12.64          61.47          3.792         -9.585          113.2          81.61          -15.6           23.1          104.4
   0.05174              -55.76          25.58          12.66          61.48          3.782         -9.586          112.9          81.58         -15.52           23.1          104.2
   0.05352              -55.73          25.58          12.69          61.48          3.769         -9.586          112.5          81.54         -15.44          23.09          104.0
    0.0553               -55.7          25.59          12.73          61.49          3.755         -9.587          112.0           81.5         -15.34          23.08          103.8
   0.05709              -55.66          25.59          12.77           61.5          3.739         -9.589          111.4          81.44         -15.22          23.07          103.6
   0.05887              -55.62          25.59          12.82          61.51           3.72          -9.59          110.8          81.38         -15.09          23.05          103.3
   0.06066              -55.57           25.6          12.87          61.52          3.698         -9.592          110.1          81.32         -14.93          23.04          103.0
   0.06244              -55.51          25.61          12.94          61.54          3.672         -9.593          109.2          81.23         -14.75          23.02          102.6
   0.06422              -55.44          25.62          13.02          61.55          3.641         -9.596          108.1          81.14         -14.53           23.0          102.1
   0.06601              -55.36          25.63          13.11          61.57          3.604         -9.598          106.9          81.02         -14.27          22.97          101.6
   0.06779              -55.26          25.64          13.23           61.6          3.559         -9.602          105.4          80.88         -13.96          22.94          100.9
   0.06958              -55.14          25.65          13.36          61.63          3.504         -9.606          103.5          80.71         -13.57           22.9          100.1
   0.07136              -54.99          25.67          13.54          61.66          3.437         -9.611          101.2          80.49          -13.1          22.86          99.08
   0.07314               -54.8          25.69          13.75          61.71          3.352         -9.617          98.39          80.23          -12.5           22.8          97.82
   0.07493              -54.57          25.72          14.02          61.77          3.246         -9.624           94.8          79.89         -11.75          22.73          96.23
